<?xml version="1.0" standalone="no"?>
<!DOCTYPE svg PUBLIC "-//W3C//DTD SVG 20010904//EN"
 "http://www.w3.org/TR/2001/REC-SVG-20010904/DTD/svg10.dtd">
<svg version="1.0" xmlns="http://www.w3.org/2000/svg"
 width="512.000000pt" height="512.000000pt" viewBox="0 0 512.000000 512.000000"
 preserveAspectRatio="xMidYMid meet">
<metadata>
Created by potrace 1.14, written by Peter Selinger 2001-2017
</metadata>
<g transform="translate(0.000000,512.000000) scale(0.100000,-0.100000)"
fill="#000000" stroke="none">
<path d="M2740 4751 c-200 -83 -497 -227 -725 -351 -44 -23 -267 -146 -281
-154 -2 -1 -8 -60 -20 -173 -3 -32 -7 -69 -9 -83 -2 -14 -7 -52 -10 -85 -4
-33 -8 -67 -10 -75 -2 -8 -7 -35 -10 -60 -3 -25 -8 -56 -10 -70 -6 -33 -12
-75 -20 -130 -3 -25 -8 -52 -10 -60 -2 -8 -7 -31 -10 -50 -7 -37 -51 -279 -60
-320 -2 -14 -9 -47 -15 -75 -6 -27 -12 -61 -15 -75 -3 -14 -9 -47 -15 -75 -6
-27 -12 -61 -15 -75 -3 -14 -11 -59 -20 -100 -19 -99 -23 -116 -45 -240 -11
-58 -24 -125 -30 -150 -5 -25 -12 -58 -15 -75 -2 -16 -14 -79 -25 -140 -12
-60 -26 -139 -31 -175 -5 -36 -11 -72 -14 -80 -5 -18 -14 -79 -20 -140 -2 -24
-7 -60 -10 -81 -3 -22 -7 -57 -10 -79 -3 -22 -7 -59 -10 -82 -3 -24 -8 -61
-11 -83 -2 -22 -6 -56 -9 -75 -2 -19 -7 -60 -10 -90 -4 -30 -12 -100 -20 -155
-7 -55 -17 -127 -20 -160 -4 -33 -11 -78 -15 -100 -5 -22 -12 -65 -15 -95 -3
-30 -8 -62 -11 -71 -2 -10 -6 -30 -9 -45 -2 -16 -10 -59 -18 -97 -17 -77 -21
-75 86 -57 32 5 84 12 115 15 31 4 64 8 72 10 8 3 40 7 70 10 30 3 62 8 70 10
8 2 35 7 60 10 25 3 63 8 85 11 22 3 51 7 65 9 34 5 111 17 134 21 10 2 44 6
75 10 31 3 58 8 61 9 3 2 30 6 60 10 30 3 98 13 150 22 121 19 162 25 178 26
9 0 12 29 11 111 -2 155 -2 156 21 156 11 0 20 6 21 13 0 6 2 28 4 47 3 19 7
57 10 84 6 55 14 73 16 35 1 -13 3 -33 5 -44 1 -11 5 -36 8 -55 3 -19 8 -51
12 -70 3 -19 7 -46 9 -60 2 -14 6 -38 9 -55 2 -16 8 -50 11 -75 4 -25 9 -52
10 -60 1 -8 6 -35 10 -60 3 -25 9 -58 11 -75 3 -16 7 -43 9 -60 15 -114 39
-151 91 -142 16 3 119 22 229 42 110 20 211 38 225 40 52 8 270 47 395 72 150
29 139 26 230 48 39 9 79 19 90 21 11 2 48 11 83 20 71 19 70 15 37 134 -8 30
-15 58 -15 62 0 8 30 15 138 33 23 4 40 10 38 14 -3 4 -7 18 -10 32 -3 13 -14
56 -25 94 -11 39 -40 144 -65 235 -25 91 -50 179 -55 195 -9 30 -160 614 -166
644 -2 9 -22 93 -45 186 -23 94 -43 177 -45 185 -2 8 -22 96 -45 195 -23 99
-51 218 -61 265 -10 47 -28 128 -39 180 -12 52 -23 106 -26 120 -3 14 -9 41
-14 60 -5 19 -12 51 -15 70 -3 19 -19 94 -35 165 -16 72 -32 146 -35 165 -3
19 -13 64 -21 100 -14 62 -28 129 -40 195 -24 139 -98 495 -114 555 -35 128
-82 250 -96 250 -7 0 -35 -9 -62 -19 l-50 -20 -65 39 c-36 21 -81 50 -100 64
-18 14 -38 26 -43 26 -5 0 -61 -22 -124 -49z m114 -147 c4 -11 -5 -19 -32 -31
-20 -8 -65 -28 -100 -44 -35 -16 -66 -29 -69 -29 -3 0 -78 -35 -167 -79 -210
-103 -309 -168 -329 -219 -13 -34 -62 -201 -72 -250 -2 -9 -11 -48 -20 -87
-22 -92 -21 -86 -44 -190 -11 -49 -23 -106 -26 -125 -3 -19 -8 -42 -10 -50 -2
-8 -6 -26 -9 -40 -2 -14 -11 -59 -20 -100 -17 -86 -94 -495 -102 -547 -6 -37
-8 -47 -23 -128 -6 -27 -13 -66 -15 -85 -3 -19 -8 -46 -11 -60 -11 -54 -14
-77 -20 -115 -5 -38 -19 -119 -30 -175 -3 -13 -7 -40 -10 -60 -3 -20 -7 -45
-9 -57 -3 -11 -7 -38 -10 -59 -4 -22 -11 -66 -17 -99 -13 -71 -15 -84 -23
-150 -4 -27 -9 -63 -13 -80 -3 -16 -7 -40 -9 -52 -1 -13 -5 -40 -8 -60 -4 -21
-8 -51 -10 -68 -3 -16 -7 -43 -10 -60 -6 -38 -33 -233 -41 -300 -3 -27 -8 -68
-11 -90 -8 -56 -11 -87 -19 -191 -3 -50 -8 -100 -9 -110 -2 -16 -23 -23 -116
-42 -113 -22 -135 -20 -125 12 2 6 6 56 10 111 3 55 10 132 15 170 5 39 12 95
15 125 3 30 8 66 10 80 2 14 7 48 10 75 3 28 10 77 15 110 5 33 12 83 15 110
4 28 8 57 10 65 2 8 7 39 10 69 4 30 9 63 11 75 2 11 6 38 9 61 4 22 8 51 10
65 2 14 20 126 40 250 20 124 38 232 40 240 2 8 6 33 9 55 2 22 16 108 31 190
14 83 28 164 31 180 2 17 9 55 14 85 5 30 12 69 14 85 3 17 8 41 11 55 2 14 6
36 9 50 2 14 10 54 16 90 7 36 14 74 15 85 3 16 46 236 61 310 2 11 6 29 8 40
27 141 88 393 117 481 18 55 26 66 79 105 112 81 338 196 650 328 238 102 243
103 254 75z m-145 -1716 c49 -29 91 -69 102 -95 4 -13 11 -67 14 -120 7 -110
14 -149 57 -313 35 -133 63 -219 89 -274 11 -22 19 -46 19 -54 0 -20 -35 -66
-64 -85 -22 -15 -28 -15 -60 -2 -54 23 -109 18 -188 -15 -38 -16 -72 -30 -75
-30 -3 0 9 16 27 36 38 43 38 42 -20 204 -38 107 -40 120 -35 190 3 41 7 86 9
100 3 14 10 66 16 115 23 175 58 365 68 365 3 0 21 -10 41 -22z m165 -1165
c39 -39 57 -115 61 -261 2 -72 7 -143 9 -158 3 -16 8 -54 11 -84 9 -81 50
-277 88 -422 l34 -126 -31 -6 c-17 -3 -42 -8 -56 -11 -14 -3 -41 -8 -60 -11
-19 -3 -44 -8 -55 -11 -11 -3 -30 -7 -42 -9 -12 -1 -34 -5 -50 -8 l-29 -7 -47
188 c-26 103 -49 206 -52 228 -3 22 -8 49 -10 61 -3 12 -7 39 -10 60 -4 21 -8
49 -10 61 -6 39 -16 166 -20 268 -5 110 -15 163 -39 200 -16 24 -16 24 36 40
29 8 82 18 118 21 36 4 66 8 68 9 1 1 15 2 31 3 19 0 39 -9 55 -25z"/>
</g>
</svg>
