<svg width="29" height="20" viewBox="0 0 29 20" fill="none" xmlns="http://www.w3.org/2000/svg">
<path fill-rule="evenodd" clip-rule="evenodd" d="M29 10C29 9.73478 28.8946 9.48043 28.7071 9.29289C28.5195 9.10536 28.2652 9 28 9L4.41396 9L10.708 2.708C10.8957 2.52023 11.0012 2.26555 11.0012 2C11.0012 1.73445 10.8957 1.47977 10.708 1.292C10.5202 1.10423 10.2655 0.998738 9.99996 0.998738C9.7344 0.998738 9.47973 1.10423 9.29196 1.292L1.29196 9.292C1.19883 9.38489 1.12494 9.49524 1.07453 9.61673C1.02412 9.73822 0.998169 9.86847 0.998169 10C0.998169 10.1315 1.02412 10.2618 1.07453 10.3833C1.12494 10.5048 1.19883 10.6151 1.29196 10.708L9.29196 18.708C9.38493 18.801 9.49531 18.8747 9.61679 18.925C9.73827 18.9754 9.86847 19.0013 9.99996 19.0013C10.2655 19.0013 10.5202 18.8958 10.708 18.708C10.8957 18.5202 11.0012 18.2656 11.0012 18C11.0012 17.7344 10.8957 17.4798 10.708 17.292L4.41396 11L28 11C28.2652 11 28.5195 10.8946 28.7071 10.7071C28.8946 10.5196 29 10.2652 29 10Z" fill="black"/>
</svg>
