<svg width="26" height="19" viewBox="0 0 26 19" fill="none" xmlns="http://www.w3.org/2000/svg">
<path d="M11.2359 8.598C11.7609 8.28341 12.1579 7.93478 12.4289 7.5521C12.9109 6.87243 13.1529 5.97089 13.1529 4.85102C13.1529 3.76402 12.9129 2.82963 12.4349 2.05018C11.6399 0.781232 10.2899 0.129745 8.38386 0.0957031H0.828857V18.4444H7.87286C8.66686 18.4444 9.40386 18.361 10.0819 18.1955C10.7599 18.0312 11.3489 17.7236 11.8479 17.2752C12.2899 16.8855 12.6599 16.4042 12.9549 15.8314C13.4189 14.9674 13.6499 13.9931 13.6499 12.9049C13.6499 11.852 13.4469 10.9551 13.0419 10.2168C12.6349 9.4784 12.0339 8.93842 11.2359 8.598ZM3.94585 3.28274H7.34686C8.09586 3.28274 8.71086 3.37783 9.19386 3.56917C9.75386 3.84268 10.0339 4.40731 10.0339 5.26188C10.0339 6.03429 9.82186 6.57074 9.39786 6.8736C8.97586 7.17646 8.42386 7.32788 7.74486 7.32788H3.94585V3.28274ZM9.32486 14.9357C8.94786 15.1517 8.41986 15.2585 7.74286 15.2585H3.94685V10.367H7.79385C8.46685 10.3752 8.98586 10.4785 9.35686 10.6781C10.0199 11.0349 10.3519 11.69 10.3519 12.6443C10.3519 13.7724 10.0089 14.5354 9.32486 14.9357Z" fill="#534640"/>
<path d="M25.8967 9.96354C25.7557 8.89884 25.4487 7.96445 24.9757 7.158C24.4517 6.24356 23.7847 5.57445 22.9777 5.15069C22.1727 4.72692 21.2667 4.51562 20.2597 4.51562C18.5667 4.51562 17.1887 5.14247 16.1267 6.39733C15.0647 7.65101 14.5337 9.45289 14.5337 11.803C14.5337 14.3115 15.1217 16.1228 16.2977 17.2356C17.4737 18.3484 18.8307 18.906 20.3687 18.906C22.2327 18.906 23.6827 18.2463 24.7177 16.9269C25.3847 16.0958 25.7577 15.2788 25.8387 14.4747H22.7527C22.5737 14.8726 22.3657 15.1837 22.1307 15.4079C21.7007 15.8235 21.1407 16.0312 20.4527 16.0312C19.8027 16.0312 19.2487 15.861 18.7867 15.5206C18.0277 14.9724 17.6247 14.0181 17.5777 12.6564H25.9967C26.0107 11.4849 25.9777 10.5869 25.8967 9.96354ZM17.6517 10.3157C17.7617 9.43294 18.0297 8.73331 18.4567 8.21564C18.8847 7.70031 19.4857 7.4409 20.2607 7.4409C20.9747 7.4409 21.5727 7.68506 22.0547 8.17104C22.5367 8.65819 22.8047 9.37424 22.8597 10.3157H17.6517Z" fill="#534640"/>
<path d="M23.459 1.15039H16.666V3.00275H23.459V1.15039Z" fill="#534640"/>
</svg>
