<svg width="40" height="22" viewBox="0 0 40 22" fill="none" xmlns="http://www.w3.org/2000/svg">
<path d="M19.4672 16.6504C18.7025 17.8522 17.9688 19.028 16.3248 20.1703C15.4455 20.7867 13.4214 21.9911 10.5444 21.9911C5.05539 21.9911 0.625 18.0004 0.625 10.9845C0.625 4.85278 4.79258 0.0090332 10.6614 0.0090332C13.0391 0.0090332 15.1516 0.830986 16.7073 2.06403C18.1459 3.20856 18.8196 4.35341 19.4075 5.38091L15.2997 7.43349C15.0058 6.75958 14.652 6.05466 13.744 5.29239C12.7452 4.49903 11.7487 4.26489 10.8955 4.26489C7.55016 4.26489 5.78898 7.37622 5.78898 10.8387C5.78898 15.3886 8.1093 17.6468 10.8955 17.6468C13.5958 17.6468 14.683 15.7685 15.3857 14.5666L19.4672 16.6504V16.6504ZM33.8573 0.654267H39.375L32.1846 21.3746H26.9036L19.8017 0.654267H25.3193L29.6039 15.3886L33.8573 0.654267Z" fill="black"/>
</svg>
