<svg width="23" height="19" viewBox="0 0 23 19" fill="none" xmlns="http://www.w3.org/2000/svg">
<path d="M16.6264 18.8028H19.7277C21.4334 18.8028 22.8289 17.4073 22.8289 15.7016V7.34886L16.6264 12.1868V18.8028ZM19.2108 0.195312C18.3941 0.195312 17.6188 0.464088 16.9779 0.960288L16.6264 1.2394V9.57143L22.8289 4.72314V3.81344C22.8289 1.8183 21.2059 0.195312 19.2108 0.195312ZM8.35643 2.85205V11.1841L11.4577 13.6031L14.5589 11.1841V2.85205L11.4577 5.27103L8.35643 2.85205ZM0.0864258 15.7016C0.0864258 17.4073 1.48199 18.8028 3.18768 18.8028H6.28893V12.1868L0.0864258 7.34886V15.7016ZM3.70455 0.195312C1.70941 0.195312 0.0864258 1.8183 0.0864258 3.81344V4.72314L6.28893 9.57143V1.2394L5.93745 0.960288C5.29653 0.464088 4.52121 0.195312 3.70455 0.195312Z" fill="#534640"/>
</svg>
