<svg width="24" height="23" viewBox="0 0 24 23" fill="none" xmlns="http://www.w3.org/2000/svg">
<path d="M5.66632 22.7623H1.01831V7.74628H5.66632V22.7623ZM3.31932 5.77928C1.80132 5.77928 0.570312 4.53727 0.570312 3.00827C0.570312 1.47827 1.80032 0.238281 3.31932 0.238281C4.83732 0.238281 6.06831 1.47827 6.06831 3.00827C6.06831 4.53727 4.83732 5.77928 3.31932 5.77928ZM23.0853 22.7623H18.4593C18.4593 22.7623 18.4593 17.0423 18.4593 14.8793C18.4593 12.7173 17.6383 11.5103 15.9293 11.5103C14.0683 11.5103 13.0973 12.7683 13.0973 14.8793C13.0973 17.1923 13.0973 22.7623 13.0973 22.7623H8.63832V7.74628H13.0973V9.76927C13.0973 9.76927 14.4373 7.28827 17.6223 7.28827C20.8063 7.28827 23.0863 9.23328 23.0863 13.2553C23.0853 17.2763 23.0853 22.7623 23.0853 22.7623Z" fill="#534640"/>
</svg>
