<svg width="22" height="23" viewBox="0 0 22 23" fill="none" xmlns="http://www.w3.org/2000/svg">
<path fill-rule="evenodd" clip-rule="evenodd" d="M21.9938 10.6156C21.8475 4.79845 17.0738 0.128906 11.1987 0.128906C5.39448 0.128906 0.661559 4.69251 0.408818 10.4179C0.403497 10.5755 0.399075 10.7331 0.399075 10.8898C0.399075 12.925 0.965743 14.824 1.94655 16.4479L0 22.2196L5.98153 20.3108C7.52901 21.1637 9.30884 21.6507 11.1995 21.6507C17.166 21.6507 22 16.8333 22 10.8898C21.9982 10.7981 21.9982 10.7073 21.9938 10.6156ZM11.1987 19.9351C9.35321 19.9351 7.63898 19.3867 6.20323 18.4376L2.71453 19.5541L3.84699 16.1941C2.75976 14.702 2.1177 12.8698 2.1177 10.8898C2.1177 10.5951 2.13277 10.3013 2.16293 10.012C2.6081 5.43323 6.49058 1.84448 11.1987 1.84448C15.967 1.84448 19.885 5.52493 20.2494 10.1847C20.2698 10.4179 20.2796 10.6521 20.2796 10.8907C20.2796 15.8799 16.2038 19.9351 11.1987 19.9351Z" fill="#534640"/>
<path fill-rule="evenodd" clip-rule="evenodd" d="M16.148 13.0622C15.8802 12.9304 14.581 12.2903 14.338 12.2039C14.095 12.1122 13.9185 12.0722 13.7412 12.3357C13.5638 12.6001 13.0539 13.1939 12.9014 13.3667C12.7444 13.5447 12.5927 13.5643 12.3249 13.4325C12.0615 13.3008 11.2075 13.0266 10.1957 12.1229C9.41176 11.4276 8.87613 10.5649 8.72448 10.3005C8.57284 10.037 8.70939 9.89455 8.84064 9.76278C8.96213 9.64081 9.10403 9.45295 9.23971 9.30071C9.27519 9.25531 9.30534 9.21437 9.33549 9.17341C9.39579 9.07726 9.4419 8.98556 9.5022 8.85825C9.59354 8.68108 9.54745 8.52884 9.48182 8.39619C9.4162 8.26443 8.88499 6.96461 8.6624 6.43667C8.44513 5.90873 8.22254 5.99954 8.06557 5.99954C7.91393 5.99954 7.73656 5.97461 7.56008 5.97461C7.38272 5.97461 7.09453 6.04049 6.85243 6.30491C6.60945 6.56843 5.92749 7.20855 5.92749 8.50748C5.92749 8.81195 5.98335 9.11644 6.06405 9.40578C6.33187 10.3343 6.90828 11.1009 7.00937 11.2335C7.14062 11.4062 8.83976 14.1572 11.5295 15.2185C14.2245 16.269 14.2245 15.9191 14.7096 15.8728C15.1946 15.8319 16.2774 15.238 16.4947 14.6193C16.7173 14.005 16.7173 13.4771 16.6517 13.3658C16.5878 13.2607 16.4114 13.1948 16.148 13.0622Z" fill="#534640"/>
</svg>
