<svg width="32" height="24" viewBox="0 0 32 24" fill="none" xmlns="http://www.w3.org/2000/svg">
<path d="M29.333 3.2H19.9998V0H29.333V3.2ZM31.6343 19.2C31.045 21.2752 28.929 24 24.8331 24C20.7344 24 17.4145 21.2336 17.4145 14.92C17.4145 8.664 20.5144 5.448 24.7024 5.448C28.8117 5.448 31.321 8.2992 31.869 12.5296C31.973 13.3392 32.0143 14.4304 31.9957 15.9536H21.2931C21.4664 21.0912 25.9371 21.2528 27.4104 19.2H31.6343ZM21.3864 12.8H28.0064C27.8664 10.3248 26.4917 9.2496 24.7037 9.2496C22.7491 9.2496 21.6678 10.4784 21.3864 12.8ZM8.62124 23.9808H0V0.0335999H9.27057C16.5718 0.1632 16.7105 8.744 12.8972 11.0832C17.5118 13.0992 17.6665 23.9808 8.62124 23.9808ZM3.99996 9.6H8.77857C12.1225 9.6 12.6532 4.8 8.36258 4.8H3.99996V9.6ZM8.52124 14.4H3.99996V19.2256H8.45458C12.5279 19.2256 12.2785 14.4 8.52124 14.4Z" fill="#1F1218"/>
</svg>
