<svg width="32" height="24" viewBox="0 0 32 24" fill="none" xmlns="http://www.w3.org/2000/svg">
<path d="M26.7661 0.793633L24.7189 2.3842L16.002 8.826L7.28512 2.32058L5.23785 0.730011C4.75555 0.333236 4.1668 0.0858951 3.54452 0.0186301C2.92225 -0.048635 2.2938 0.0671324 1.73704 0.35159C1.18028 0.636047 0.719679 1.07669 0.412291 1.61894C0.104903 2.16118 -0.0357585 2.78119 0.00773225 3.40216V21.8368C0.00773225 22.4105 0.236906 22.9607 0.644839 23.3664C1.05277 23.7721 1.60605 24 2.18295 24H7.28512V11.7208L16.002 18.2262L24.7189 11.7208V24H29.821C30.3979 24 30.9512 23.7721 31.3591 23.3664C31.7671 22.9607 31.9962 22.4105 31.9962 21.8368V3.40216C32.0263 2.78655 31.8758 2.17552 31.5632 1.64335C31.2506 1.11118 30.7892 0.680777 30.2352 0.40447C29.6812 0.128164 29.0584 0.0178495 28.4426 0.0869368C27.8267 0.156024 27.2443 0.401537 26.7661 0.793633Z" fill="#1F1218"/>
</svg>
